<svg width="216" height="21" fill="none" xmlns="http://www.w3.org/2000/svg">
  <path fill-rule="evenodd" clip-rule="evenodd" d="M94.275 20.858V1.33c-.01-.161.011-.322.061-.473.05-.15.129-.287.23-.4.1-.113.22-.2.353-.254a.862.862 0 0 1 .415-.061h4.049a2.5 2.5 0 0 1 1.051.372c.325.205.61.482.839.816l5.959 8.362V.19h6.126v19.551a1.23 1.23 0 0 1-.06.464 1.128 1.128 0 0 1-.224.393.953.953 0 0 1-.348.248.843.843 0 0 1-.406.06h-4.029a2.4 2.4 0 0 1-1.053-.353 2.77 2.77 0 0 1-.836-.812l-6.064-8.41v9.503l-6.063.024ZM27.867.12c-1.267 4.75-4.153 15.915-5.191 19.574a1.593 1.593 0 0 1-.5.848 1.26 1.26 0 0 1-.85.316h-3.717a1.338 1.338 0 0 1-.85-.328 1.676 1.676 0 0 1-.52-.836l-2.306-8.1-2.304 8.1a1.633 1.633 0 0 1-.515.846c-.247.21-.548.322-.856.318H6.562a1.259 1.259 0 0 1-.85-.316 1.594 1.594 0 0 1-.5-.848L0 .143h6.022a3884.07 3884.07 0 0 1 2.845 11.022l2.18-9.834c.07-.342.24-.645.482-.86.242-.217.54-.332.847-.328h2.99c.299-.006.59.104.827.31.237.208.407.5.481.83.644 2.827 2.264 9.835 2.264 9.835s1.744-6.96 2.74-10.999h6.189ZM52.39.12v14.965h6.085v5.773H47.282a.822.822 0 0 1-.41-.05.924.924 0 0 1-.352-.248 1.096 1.096 0 0 1-.224-.398 1.212 1.212 0 0 1-.052-.468V.119h6.147Z" fill="#142D84"></path>
  <path fill-rule="evenodd" clip-rule="evenodd" d="M71.848.143V5.89h-5.295v14.967h-6.126V5.89h-5.295V.143h16.716ZM81.649 6.533h2.907c.55 0 1.079.25 1.468.696.39.445.608 1.05.608 1.68v3.088c0 .312-.053.62-.158.909-.104.288-.257.55-.45.77-.193.221-.422.396-.674.515-.252.12-.522.181-.794.181h-2.907c-.551 0-1.08-.25-1.469-.696a2.56 2.56 0 0 1-.608-1.68V8.909c0-.63.219-1.234.608-1.68.39-.445.918-.695 1.469-.695ZM79.904.143h6.5c4.319 0 6.022 2.375 6.022 6.865v6.984c0 4.395-1.682 6.866-6.022 6.866H79.8c-4.361 0-6.002-2.376-6.002-6.866V7.008C73.8 2.566 75.44.143 79.8.143h.104ZM38.765 20.858l-.291-1.188-.83-3.35h-5.732l-.83 3.35-.291 1.188h-6.126l.312-1.164 4.88-18.363c.078-.345.256-.65.505-.865.248-.216.553-.33.865-.323h7.164c.307.003.605.12.849.335.243.214.42.514.5.853.977 3.682 3.925 14.728 4.88 18.363l.333 1.164h-6.188Zm-2.18-8.814-1.807-7.459-1.786 7.46h3.592Z" fill="#142D84"></path>
  <path fill-rule="evenodd" clip-rule="evenodd" d="M147.723.12v14.989h6.084v5.773h-11.192a.826.826 0 0 1-.411-.05.917.917 0 0 1-.351-.249 1.094 1.094 0 0 1-.224-.397 1.195 1.195 0 0 1-.052-.468V.119h6.146ZM169.465 20.858l-.29-1.188-.831-3.35h-5.71l-.831 3.35-.291 1.188h-6.229l.311-1.164c.976-3.611 3.925-14.705 4.901-18.364.071-.345.244-.651.49-.868.246-.216.55-.329.86-.32h7.122c.314 0 .619.118.867.338.248.22.425.527.504.874.975 3.659 3.924 14.705 4.879 18.34l.312 1.164h-6.064Zm-2.201-8.814-1.786-7.459-1.806 7.46h3.592ZM209.957 20.858l-.29-1.188c-.312-1.33-.81-3.35-.81-3.35h-5.752l-.831 3.35-.291 1.188h-6.229l.311-1.164 4.88-18.363c.079-.345.257-.65.506-.865.248-.216.553-.33.865-.323h7.122c.312-.004.616.114.861.334.246.22.418.53.489.877l4.901 18.34.311 1.164h-6.043Zm-2.18-8.814-1.807-7.459-1.806 7.46h3.613Z" fill="#EC1C24"></path>
  <path d="M178.125 0h14.847c.314 0 .615.143.837.397.222.254.346.598.346.957V5.75l-8.679 9.62h8.991V21h-16.155a1.133 1.133 0 0 1-.831-.403 1.48 1.48 0 0 1-.353-.951V15.37l9.24-9.74h-8.306l.063-5.63ZM134.558.12h-10.902v20.762h6.23v-5.63h4.714c.753.05 1.509-.07 2.222-.356a5.61 5.61 0 0 0 1.931-1.307 5.384 5.384 0 0 0 1.034-1.774c.236-.666.35-1.38.336-2.098V5.749a6.238 6.238 0 0 0-.397-2.36 5.567 5.567 0 0 0-1.234-1.944 4.702 4.702 0 0 0-1.838-1.163 4.254 4.254 0 0 0-2.096-.163Zm-4.714 5.012h3.281c.194-.035.393-.018.581.05.187.068.358.185.499.342.141.157.248.349.313.561.065.212.086.439.061.662V8.53c.025.223.004.45-.061.662a1.49 1.49 0 0 1-.313.561 1.249 1.249 0 0 1-.499.342 1.118 1.118 0 0 1-.581.05h-3.281V5.132Z" fill="#EC1C24"></path>
</svg>
